# xmcd
#
# Track frame offsets: 
#        150
#        15490
#        34040
#        50766
#        68093
#        86662
#        103317
#        118712
#        136618
#        151651
#        165586
#
# Disc length: 2448 seconds
#
# Revision: 9
# Processed by: cddbd v1.5.2PL0 Copyright (c) Steve Scherf et al.
# Submitted via: ExactAudioCopy v0.99pb4
#
DISCID=84098e0b
DTITLE=Trace Adkins - Songs About Me
DYEAR=2005
DGENRE=Country
TTITLE0=Songs About Me
TTITLE1=Arlington
TTITLE2=Find Me A Preacher
TTITLE3=My Way Back
TTITLE4=I Wish It Was You
TTITLE5=Bring It On
TTITLE6=My Heaven
TTITLE7=Baby I'm Home
TTITLE8=Metropolis
TTITLE9=I Learned How To Love From You
TTITLE10=Honky Tonk Badonkadonk
EXTD=YEAR: 2005
EXTT0=
EXTT1=
EXTT2=
EXTT3=
EXTT4=
EXTT5=
EXTT6=
EXTT7=
EXTT8=
EXTT9=
EXTT10=
PLAYORDER=
